<?xml version="1.0" encoding="utf-8"?>
<!-- Generator: Adobe Illustrator 21.0.0, SVG Export Plug-In . SVG Version: 6.00 Build 0)  -->
<svg version="1.1" id="Layer_1" xmlns="http://www.w3.org/2000/svg" xmlns:xlink="http://www.w3.org/1999/xlink" x="0px" y="0px"
	 viewBox="0 0 71 93" style="enable-background:new 0 0 71 93;" xml:space="preserve">
<style type="text/css">
	.st0{fill:#FFFFFF;}
</style>
<path class="st0" d="M12.8,88.2v-8.3l-3.8,6.5H8.6l-3.8-6.5v8.3H4.3v-9.2h0.4l4,6.8l4-6.8h0.4v9.2L12.8,88.2L12.8,88.2z M21.7,87.8
	v0.4h-6v-9.2h5.9v0.4h-5.5v3.9h4.8v0.4h-4.8v4.1H21.7L21.7,87.8z M32,88.2v-8.3l-3.8,6.5h-0.3l-3.8-6.5v8.3h-0.4v-9.2H24l4,6.8
	l4-6.8h0.4v9.2L32,88.2L32,88.2z M41.6,85.9c0,0.3-0.1,0.6-0.2,0.9c-0.2,0.6-0.7,1-1.3,1.3c-0.3,0.1-0.6,0.2-0.9,0.2H35v-9.2h4.1
	c0.3,0,0.6,0.1,0.9,0.2c0.3,0.1,0.5,0.3,0.7,0.5c0.2,0.2,0.3,0.5,0.4,0.7c0.1,0.3,0.1,0.6,0.1,0.8c0,0.4-0.1,0.9-0.3,1.3
	c-0.2,0.4-0.6,0.7-1,0.9c0.5,0.1,0.9,0.5,1.2,0.9c0.1,0.2,0.3,0.4,0.3,0.7C41.5,85.3,41.6,85.6,41.6,85.9L41.6,85.9z M35.4,79.5v3.9
	h3.5c0.3,0,0.5-0.1,0.7-0.2c0.2-0.1,0.4-0.3,0.6-0.4c0.2-0.2,0.3-0.4,0.4-0.6c0.1-0.2,0.1-0.5,0.1-0.7c0-0.3,0-0.5-0.1-0.7
	c-0.1-0.2-0.2-0.4-0.4-0.6c-0.1-0.2-0.3-0.3-0.5-0.4c-0.2-0.1-0.5-0.2-0.7-0.2L35.4,79.5L35.4,79.5z M41.1,85.8c0-0.3,0-0.5-0.1-0.8
	c-0.1-0.2-0.2-0.5-0.4-0.6c-0.2-0.2-0.4-0.3-0.6-0.4c-0.2-0.1-0.5-0.2-0.7-0.2h-3.9v4h3.8c0.3,0,0.5-0.1,0.7-0.2
	c0.2-0.1,0.4-0.3,0.6-0.4c0.2-0.2,0.3-0.4,0.4-0.6C41.1,86.3,41.1,86.1,41.1,85.8L41.1,85.8z M49.5,87.8v0.4h-6v-9.2h5.9v0.4h-5.5
	v3.9h4.8v0.4h-4.8v4.1L49.5,87.8L49.5,87.8z M51.3,88.2v-9.2h3.8c0.4,0,0.7,0.1,1,0.2c0.3,0.2,0.6,0.4,0.8,0.6
	c0.2,0.3,0.4,0.6,0.5,0.9c0.1,0.3,0.2,0.7,0.2,1c0,0.3-0.1,0.7-0.2,1c-0.1,0.3-0.3,0.6-0.5,0.9c-0.2,0.2-0.4,0.5-0.7,0.6
	c-0.3,0.2-0.6,0.3-0.9,0.3l2.3,3.6h-0.5L55,84.7h-3.2v3.5L51.3,88.2L51.3,88.2z M51.8,84.3h3.4c0.3,0,0.6-0.1,0.9-0.2
	c0.3-0.1,0.5-0.3,0.7-0.5c0.2-0.2,0.3-0.5,0.4-0.8c0.1-0.3,0.1-0.6,0.1-0.9c0-0.3-0.1-0.6-0.2-0.9c-0.1-0.3-0.3-0.5-0.5-0.8
	c-0.2-0.2-0.4-0.4-0.7-0.5c-0.3-0.1-0.6-0.2-0.8-0.2h-3.3L51.8,84.3L51.8,84.3z M64.9,80.4c-0.3-0.3-0.7-0.6-1.1-0.8
	c-0.5-0.2-0.9-0.2-1.4-0.2c-0.7-0.1-1.5,0.1-2.1,0.6c-0.4,0.4-0.7,0.9-0.7,1.5c0,0.3,0,0.5,0.2,0.8c0.1,0.2,0.3,0.4,0.5,0.5
	c0.3,0.2,0.6,0.3,0.9,0.4c0.4,0.1,0.8,0.2,1.3,0.3c0.5,0.1,0.9,0.2,1.4,0.3c0.4,0.1,0.7,0.3,1,0.5c0.3,0.2,0.5,0.4,0.7,0.7
	c0.2,0.3,0.2,0.7,0.2,1c0,0.4-0.1,0.7-0.2,1c-0.2,0.3-0.4,0.5-0.6,0.7c-0.3,0.2-0.7,0.4-1,0.4c-0.4,0.1-0.9,0.2-1.3,0.1
	c-0.7,0-1.3-0.1-2-0.3c-0.6-0.2-1.2-0.6-1.6-1l0.3-0.3c0.4,0.4,0.9,0.8,1.5,1c0.6,0.2,1.2,0.3,1.9,0.3c0.7,0,1.4-0.1,2-0.5
	c0.5-0.3,0.8-0.9,0.7-1.4c0-0.3-0.1-0.6-0.2-0.8c-0.1-0.2-0.3-0.4-0.5-0.6c-0.3-0.2-0.6-0.3-0.9-0.4c-0.4-0.1-0.8-0.2-1.3-0.3
	c-0.5-0.1-0.9-0.2-1.3-0.3c-0.3-0.1-0.7-0.2-1-0.4c-0.2-0.2-0.5-0.4-0.6-0.6c-0.1-0.3-0.2-0.6-0.2-0.9c0-0.4,0.1-0.7,0.2-1.1
	c0.2-0.3,0.4-0.6,0.6-0.8c0.3-0.2,0.6-0.4,1-0.5c0.4-0.1,0.9-0.2,1.3-0.2c0.5,0,1.1,0.1,1.6,0.3c0.5,0.2,0.9,0.5,1.2,0.8L64.9,80.4z
	 M17.5,59.9c1.5,0.2,2.9,1.1,3.8,2.3c1,1.3,1.5,2.9,1.5,4.5c0,1.1-0.2,2.2-0.7,3.2c-0.5,1-1.1,1.8-2,2.4c-0.9,0.7-2,1.2-3.1,1.6
	c-1.3,0.4-2.7,0.6-4.1,0.6c-1.7,0-3.5-0.3-5.1-0.9c-1.4-0.6-2.7-1.5-3.7-2.7L7,67.2c0.6,0.8,1.4,1.5,2.3,1.9
	c1.1,0.5,2.2,0.7,3.4,0.7c1.2,0.1,2.5-0.2,3.5-0.9c0.8-0.7,1.3-1.7,1.2-2.8c0.1-1.2-0.5-2.3-1.4-3c-1.3-0.8-2.8-1.2-4.2-1.1h-1.1
	v-3.8H12c1.3,0.1,2.6-0.3,3.6-1c0.8-0.6,1.3-1.6,1.3-2.7c0.1-0.9-0.3-1.8-1.1-2.3c-0.8-0.5-1.8-0.8-2.8-0.8c-1.1,0-2.2,0.3-3.1,0.8
	c-0.9,0.5-1.7,1.3-2.3,2.2l-3.2-3.6c0.4-0.6,0.9-1.1,1.5-1.6c0.7-0.5,1.4-0.9,2.1-1.2c0.8-0.4,1.7-0.6,2.6-0.8
	c0.9-0.2,1.9-0.3,2.9-0.3c1.2,0,2.4,0.2,3.5,0.5c1,0.3,1.9,0.8,2.7,1.4c1.5,1.1,2.4,2.9,2.4,4.9c0,0.7-0.1,1.5-0.3,2.2
	c-0.2,0.7-0.6,1.3-1,1.9c-0.4,0.6-0.9,1-1.5,1.4C18.9,59.5,18.2,59.8,17.5,59.9z M45.5,60.9c0,1.2-0.2,2.4-0.8,3.4
	c-0.5,1-1.2,1.9-2.1,2.6c-0.9,0.8-2,1.3-3.1,1.7c-1.2,0.4-2.5,0.6-3.8,0.6c-1.3,0-2.6-0.2-3.8-0.6c-1.1-0.4-2.2-1-3.1-1.8
	c-0.9-0.7-1.6-1.7-2.1-2.7c-0.5-1.1-0.8-2.2-0.8-3.4c0-0.7,0.1-1.4,0.4-2.1c0.2-0.6,0.6-1.2,1-1.8c0.4-0.5,0.8-1,1.3-1.4
	c0.5-0.4,1-0.7,1.5-1c-1-0.5-1.8-1.2-2.4-2c-0.6-0.9-1-1.9-1-3c0-1.1,0.3-2.2,0.8-3.2c0.5-0.9,1.3-1.7,2.1-2.3
	c0.9-0.6,1.8-1.1,2.9-1.4c1-0.3,2.1-0.5,3.1-0.5c1.1,0,2.1,0.2,3.1,0.5c1,0.3,2,0.8,2.9,1.4c0.9,0.6,1.6,1.4,2.1,2.3
	c0.6,1,0.9,2.1,0.8,3.2c0,0.5-0.1,1.1-0.3,1.6c-0.2,0.5-0.4,1-0.7,1.4c-0.3,0.4-0.7,0.8-1.1,1.2c-0.4,0.3-0.9,0.6-1.4,0.9
	c0.6,0.3,1.1,0.6,1.6,1c0.5,0.4,1,0.9,1.4,1.4c0.4,0.6,0.7,1.2,1,1.8C45.3,59.4,45.5,60.2,45.5,60.9z M40.3,60.6
	c0-0.6-0.1-1.2-0.4-1.7c-0.3-0.5-0.6-0.9-1.1-1.3c-0.4-0.3-1-0.6-1.5-0.8c-0.6-0.2-1.1-0.3-1.7-0.3c-0.6,0-1.2,0.1-1.7,0.3
	c-0.5,0.2-1,0.5-1.5,0.8c-0.4,0.4-0.8,0.8-1,1.3c-0.3,0.5-0.4,1.1-0.4,1.7c0,0.6,0.1,1.1,0.4,1.7c0.3,0.5,0.6,0.9,1,1.3
	c0.4,0.4,0.9,0.6,1.5,0.8c0.5,0.2,1.1,0.3,1.7,0.3c0.6,0,1.2-0.1,1.7-0.3c0.5-0.2,1-0.5,1.5-0.8c0.4-0.3,0.8-0.8,1-1.3
	C40.2,61.7,40.3,61.2,40.3,60.6L40.3,60.6z M31.9,49.6c0,0.5,0.1,1,0.3,1.4c0.2,0.4,0.5,0.7,0.9,1c0.4,0.3,0.8,0.5,1.2,0.6
	c0.4,0.1,0.9,0.2,1.3,0.2c0.5,0,0.9-0.1,1.3-0.2c0.4-0.1,0.9-0.3,1.2-0.6c0.4-0.3,0.7-0.6,0.9-1c0.2-0.4,0.4-0.9,0.3-1.4
	c0-0.9-0.4-1.7-1.1-2.2c-0.8-0.6-1.7-0.9-2.7-0.8c-1,0-1.9,0.3-2.7,0.9C32.3,47.8,31.9,48.7,31.9,49.6L31.9,49.6z M61.6,59.9
	c1.5,0.2,2.9,1.1,3.8,2.3c1,1.3,1.5,2.9,1.5,4.5c0,1.1-0.2,2.2-0.7,3.2c-0.5,1-1.1,1.8-2,2.4c-0.9,0.7-2,1.2-3.1,1.6
	c-1.3,0.4-2.7,0.6-4.1,0.6c-1.7,0-3.5-0.3-5.1-0.9c-1.4-0.6-2.7-1.5-3.7-2.7l2.9-3.6c0.6,0.8,1.4,1.5,2.3,1.9
	c1.1,0.5,2.2,0.7,3.4,0.7c1.2,0.1,2.5-0.2,3.5-0.9c0.8-0.7,1.3-1.7,1.2-2.8c0.1-1.2-0.5-2.3-1.4-3c-1.3-0.8-2.8-1.2-4.2-1.1h-1.1
	v-3.8H56c1.3,0.1,2.6-0.3,3.6-1c0.8-0.6,1.3-1.6,1.3-2.7c0.1-0.9-0.3-1.8-1.1-2.3c-0.8-0.5-1.8-0.8-2.8-0.8c-1.1,0-2.2,0.3-3.1,0.8
	c-0.9,0.5-1.7,1.3-2.3,2.2l-3.2-3.6c0.4-0.6,0.9-1.1,1.5-1.6c0.7-0.5,1.4-0.9,2.1-1.2c0.8-0.4,1.7-0.6,2.6-0.8
	c0.9-0.2,1.9-0.3,2.9-0.3c1.2,0,2.4,0.2,3.5,0.5c1,0.3,1.9,0.8,2.7,1.4c1.5,1.1,2.4,2.9,2.4,4.9c0,0.7-0.1,1.5-0.3,2.2
	c-0.2,0.7-0.6,1.3-1,1.9c-0.4,0.6-0.9,1-1.5,1.4C62.9,59.5,62.3,59.8,61.6,59.9L61.6,59.9z M49.3,14.7c0.1,0,0.1,0,0.2,0
	c0,0,0,0.1,0,0.1c0,0.1,0.1,0.2,0.2,0.1c0.1,0,0.2-0.1,0.2-0.2c0,0,0,0,0,0c0-0.1,0-0.1-0.1-0.1c0.1,0,0.1,0,0.2,0c0,0,0,0,0,0
	c0.1,0,0.3,0,0.4-0.1c0,0,0,0,0,0c0,0,0,0,0,0l0,0l-0.2,0.1c0.1,0,0.1-0.1,0.1-0.1c0,0-0.1-0.1-0.1,0C49.8,14.6,49.5,14.6,49.3,14.7
	C49.2,14.6,49.2,14.6,49.3,14.7C49.2,14.7,49.3,14.7,49.3,14.7z M62.8,24.3l-1.6-0.1c0.2,0,0.4-0.3,0.4-0.5l-0.2-5.3
	c0-0.3-0.2-0.5-0.4-0.5c-0.1,0-0.2,0.1-0.3,0.2l0,0c1.6-3.1-0.4-6.1-2-6c-1.6-0.2-3.6,2.4-2.2,5.7c0,0-0.1,0-0.1,0
	c-0.3,0-0.5,0.2-0.5,0.4l-0.6,5.3c-0.1,0.2,0.1,0.5,0.3,0.5c0.2,0.1,0.5-0.1,0.5-0.3c0-0.1,0-0.1,0-0.2l0.4-4
	c0.3,0.7,0.5,1.4,0.5,2.1c0,0.6-1.3,6.9-1.3,6.9l1.2,0.1l-0.4,6c0.1,0.3,0.4,0.5,0.7,0.4c0.2,0,0.3-0.2,0.4-0.3l0.5-6l0.3,0l0.1,6
	c0.1,0.3,0.4,0.5,0.7,0.4c0.2,0,0.3-0.2,0.4-0.3l0-6l1.3-0.1c0,0-0.1-0.7-0.2-1.7l2.2,0.1L62.8,24.3z M59.2,18.4L59.2,18.4
	c-0.2,0.3-0.5,0.5-0.7,0.6c-0.3-0.1-0.5-0.3-0.7-0.6c-0.1-0.1-0.2-0.3-0.3-0.4l0.1-1.5c0.2,0.2,0.5,0.4,0.8,0.4
	c0.3,0,0.6-0.1,0.8-0.4L59.2,18.4z M60.1,24.2c-0.1-1.2-0.3-2.2-0.2-2.4c0.1-0.8,0.3-1.5,0.7-2.2l0.2,4.1c0,0.3,0.2,0.5,0.4,0.5
	L60.1,24.2z M53.9,22.9l-1.6,0.2c0.2-0.1,0.4-0.3,0.3-0.6l-1-5.2c0-0.3-0.2-0.4-0.5-0.4c-0.1,0-0.2,0.1-0.3,0.2
	c-0.1-0.1-0.3-0.1-0.4-0.2c0.1-0.6,0.1-1.2,0.1-1.8c-0.1-1.8-1.2-3.1-2.4-3c-1.1,0.1-2.1,1.8-1.9,3.6c0.1,0.6,0.2,1.2,0.5,1.8
	c-0.1,0-0.1-0.1-0.2-0.1c-0.2,0-0.4,0.3-0.4,0.5l0.1,5.3c0,0.2,0.1,0.4,0.3,0.5c0.2,0,0.4-0.1,0.5-0.3c0-0.1,0-0.1,0-0.2l-0.1-4
	c0.4,0.6,0.6,1.3,0.7,2.1c0,0.5-0.4,12.3-0.5,13.5l2.6-0.2l0,0l3.7-0.3c-0.2-0.6-1.1-4.7-1.8-8.2l2.4-0.2L53.9,22.9z M49.1,17
	c-0.9-0.2-1.6-1-1.6-2c-0.2-0.8,0.3-1.6,1.1-1.8c0.8-0.2,1.6,0.3,1.8,1.1c0,0.1,0,0.3,0,0.4C50.5,15.8,50,16.7,49.1,17L49.1,17z
	 M51.1,23.2c-0.3-1.3-0.5-2.2-0.5-2.3c0-0.8,0.1-1.5,0.4-2.3l0.7,4.1c0,0.2,0.2,0.4,0.5,0.4L51.1,23.2z M47.7,14.5
	C47.7,14.4,47.6,14.5,47.7,14.5c0,0.1,0,0.2,0.1,0.2c-0.1,0-0.2,0-0.3-0.1c0,0-0.1,0,0,0.1c0.1,0.1,0.3,0.1,0.4,0.1c0,0,0,0,0,0
	c0,0,0,0,0,0c0.1,0,0.2,0,0.2,0c0,0-0.1,0.1-0.1,0.1c0,0.1,0.1,0.2,0.2,0.1c0.1,0,0.2-0.1,0.2-0.2c0,0,0-0.1,0-0.1c0,0,0.1,0,0.1,0
	c0,0,0,0,0,0c0,0,0,0,0,0C48.2,14.7,47.9,14.6,47.7,14.5L47.7,14.5z M44.5,20.1l-0.3-7c0-0.3-0.2-0.6-0.6-0.6
	c-0.1,0-0.3,0.1-0.4,0.2l0,0c2.1-4.1-0.5-8-2.7-7.9c-2.1-0.2-4.8,3.2-3,7.5c0,0-0.1,0-0.1,0c-0.3,0-0.6,0.3-0.6,0.6L36,19.9
	c-0.1,0.3,0.1,0.6,0.5,0.7c0,0,0,0,0,0c0.3,0,0.6-0.3,0.6-0.6l0.6-5.3c0.4,0.9,0.6,1.8,0.6,2.8c0,0.8-1.7,9-1.7,9l1.7,0.2l-0.5,7.9
	c0.1,0.4,0.5,0.6,0.9,0.5c0.2-0.1,0.4-0.2,0.5-0.4l0.6-7.9l0.4,0l0.1,7.9c0.1,0.4,0.5,0.6,0.9,0.5c0.2-0.1,0.4-0.2,0.5-0.4l0-7.9
	l1.7-0.1c0,0-0.1-0.9-0.3-2.2l2.9,0.1l0.1-3.8L44,20.8C44.3,20.7,44.5,20.4,44.5,20.1L44.5,20.1z M41.4,13L41.4,13
	c-0.3,0.4-0.6,0.6-1,0.8c-0.3-0.2-0.7-0.4-0.9-0.7c-0.1-0.2-0.2-0.3-0.3-0.5l0.1-2c0.3,0.3,0.7,0.5,1.1,0.5c0.4,0,0.8-0.2,1.1-0.5
	L41.4,13z M42.6,20.7c-0.2-1.5-0.3-2.8-0.3-3.1c0.1-1,0.4-2,0.9-2.9l0.3,5.4c0,0.3,0.2,0.6,0.6,0.6L42.6,20.7z M34.3,19l-2.2,0.2
	c0.3-0.1,0.5-0.4,0.4-0.7c0,0,0,0,0,0l-1.3-6.9c0-0.3-0.3-0.6-0.7-0.6c-0.1,0-0.3,0.1-0.3,0.3c-0.2-0.1-0.4-0.2-0.5-0.3
	c0.1-0.8,0.1-1.6,0.1-2.4c-0.2-2.4-1.7-4.1-3.2-4c-1.5,0.1-2.8,2.3-2.6,4.7c0.1,0.8,0.3,1.6,0.7,2.3c-0.1-0.1-0.2-0.1-0.3-0.1
	c-0.3,0-0.6,0.3-0.5,0.7l0.2,7c0,0.3,0.2,0.6,0.5,0.6c0.3,0,0.6-0.2,0.6-0.5c0-0.1,0-0.1,0-0.2L25.1,14c0.5,0.8,0.9,1.7,1,2.7
	c0.1,0.7-0.6,16.2-0.7,17.8l3.5-0.3l0,0l5-0.4c-0.2-0.8-1.4-6.1-2.4-10.7l3.2-0.3L34.3,19z M27.8,11.3c-1.2-0.3-2.1-1.3-2.2-2.6
	c-0.2-1,0.4-2,1.4-2.3c0.1,0,0.3,0,0.4-0.1c1-0.1,2,0.6,2.1,1.7c0,0.1,0,0.2,0,0.4C29.8,9.6,29,10.9,27.8,11.3z M30.6,19.4
	c-0.4-1.7-0.6-2.9-0.6-3.1c-0.1-1,0.1-2,0.5-3l1,5.3c0,0.3,0.3,0.6,0.7,0.6L30.6,19.4z M28.1,8.2c0.1,0,0.1,0,0.2,0
	c0,0-0.1,0.1-0.1,0.1c0,0.1,0.1,0.2,0.3,0.2c0.1,0,0.2-0.1,0.2-0.2c0-0.1-0.1-0.1-0.1-0.2c0.1,0,0.2,0,0.2,0c0,0,0,0.1,0,0.1
	c0.2,0,0.4,0,0.5-0.1c0,0,0,0,0-0.1c0,0,0,0-0.1,0l0,0L29,8c0.1,0,0.1-0.1,0.1-0.2c0-0.1-0.1-0.1-0.1,0C28.8,8,28.4,8.1,28.1,8.2
	C28.1,8.1,28.1,8.1,28.1,8.2C28.1,8.2,28.1,8.2,28.1,8.2L28.1,8.2z M26,7.9C26,7.9,25.9,7.9,26,7.9c-0.1,0.1,0,0.2,0.1,0.2
	c-0.1,0-0.2,0-0.4-0.1c-0.1,0-0.1,0-0.1,0.1c0.2,0.1,0.3,0.1,0.5,0.1c0,0,0,0,0,0c0,0,0,0,0,0c0.1,0,0.2,0,0.3,0
	c-0.1,0-0.1,0.1-0.1,0.2c0,0.1,0.1,0.2,0.2,0.2c0.1,0,0.2-0.1,0.2-0.2c0,0,0,0,0,0c0,0,0-0.1-0.1-0.1c0,0,0.1,0,0.1,0c0,0,0,0,0.1,0
	c0,0,0,0,0,0C26.7,8.2,26.3,8.1,26,7.9L26,7.9z M22.7,23.1l-0.2-5.3c0-0.3-0.2-0.5-0.4-0.5c-0.1,0-0.2,0.1-0.3,0.2l0,0
	c1.6-3.1-0.4-6.1-2-6c-1.6-0.2-3.6,2.4-2.2,5.7c0,0-0.1,0-0.1,0c-0.3,0-0.5,0.2-0.5,0.4l-0.6,5.3c-0.1,0.2,0.1,0.5,0.3,0.5
	c0.2,0.1,0.5-0.1,0.5-0.3c0-0.1,0-0.1,0-0.2l0.4-4c0.3,0.7,0.5,1.4,0.5,2.1c0,0.6-1.3,6.8-1.3,6.8l1.2,0.1l-0.4,6
	c0.1,0.3,0.4,0.5,0.7,0.4c0.2,0,0.3-0.2,0.4-0.3l0.5-6l0.3,0l0.1,6c0.1,0.3,0.4,0.5,0.7,0.4c0.2,0,0.3-0.2,0.4-0.3l0-6l1.3-0.1
	c0,0-0.1-0.7-0.2-1.7l2.2,0.1l0.1-2.9l-1.6-0.1C22.5,23.6,22.7,23.4,22.7,23.1z M20.4,17.8L20.4,17.8c-0.2,0.3-0.5,0.5-0.7,0.6
	c-0.3-0.1-0.5-0.3-0.7-0.6c-0.1-0.1-0.2-0.3-0.3-0.4l0.1-1.5c0.2,0.2,0.5,0.4,0.8,0.4c0.3,0,0.6-0.1,0.8-0.4L20.4,17.8z M21.3,23.6
	c-0.1-1.2-0.3-2.2-0.2-2.4c0.1-0.8,0.3-1.5,0.7-2.2l0.2,4.1c0,0.3,0.2,0.5,0.4,0.5L21.3,23.6z M8.8,13.9C8.8,13.8,8.8,13.9,8.8,13.9
	c0,0.1,0,0.2,0.1,0.2c-0.1,0-0.2,0-0.3-0.1c0,0-0.1,0,0,0.1c0.1,0.1,0.3,0.1,0.4,0.1c0,0,0,0,0,0c0,0,0,0,0,0c0.1,0,0.2,0,0.2,0
	c0,0-0.1,0.1-0.1,0.1c0,0.1,0.1,0.2,0.2,0.1c0.1,0,0.2-0.1,0.2-0.2c0,0,0-0.1,0-0.1c0,0,0.1,0,0.1,0c0,0,0,0,0,0c0,0,0,0,0,0l0,0
	C9.3,14.1,9.1,14,8.8,13.9z M10.4,14.1c0.1,0,0.1,0,0.2,0c0,0,0,0.1,0,0.1c0,0.1,0.1,0.2,0.2,0.1c0.1,0,0.2-0.1,0.2-0.2c0,0,0,0,0,0
	c0-0.1,0-0.1-0.1-0.1c0.1,0,0.1,0,0.2,0c0,0,0,0,0,0c0.1,0,0.3,0,0.4-0.1c0,0,0,0,0,0c0,0,0,0,0,0l-0.2,0.1c0.1,0,0.1-0.1,0.1-0.1
	c0,0-0.1-0.1-0.1,0C10.9,13.9,10.7,14,10.4,14.1C10.4,14,10.4,14,10.4,14.1C10.4,14.1,10.4,14.1,10.4,14.1z M15,22.3l-1.6,0.2
	c0.2-0.1,0.4-0.3,0.3-0.6l-1-5.2c0-0.3-0.2-0.4-0.5-0.4c-0.1,0-0.2,0.1-0.3,0.2c-0.1-0.1-0.3-0.1-0.4-0.2c0.1-0.6,0.1-1.2,0.1-1.8
	c-0.1-1.8-1.2-3.1-2.4-3S7.2,13.2,7.4,15c0.1,0.6,0.2,1.2,0.5,1.8c-0.1,0-0.1-0.1-0.2-0.1c-0.2,0-0.4,0.3-0.4,0.5l0.1,5.3
	c0,0.2,0.1,0.4,0.3,0.5c0.2,0,0.4-0.1,0.5-0.3c0-0.1,0-0.1,0-0.2l-0.1-4c0.4,0.6,0.6,1.3,0.7,2.1c0,0.5-0.4,12.3-0.5,13.5l2.6-0.2
	l0,0l3.7-0.3c-0.2-0.6-1.1-4.7-1.8-8.2l2.4-0.2L15,22.3z M10.2,16.4c-0.9-0.2-1.6-1-1.7-2c-0.2-0.8,0.3-1.6,1.1-1.8s1.6,0.3,1.8,1.1
	c0,0.1,0,0.3,0,0.4C11.7,15.2,11.1,16.1,10.2,16.4z M12.3,22.6c-0.3-1.3-0.5-2.2-0.5-2.3c0-0.8,0.1-1.5,0.4-2.3l0.7,4.1
	c0,0.2,0.2,0.4,0.5,0.4L12.3,22.6z"/>
</svg>
