<svg xmlns="http://www.w3.org/2000/svg" width="63" height="60" viewBox="0 0 63 60">
  <defs>
    <style>
      .cls-1 {
        fill: #fff;
        fill-rule: evenodd;
      }
    </style>
  </defs>
  <path class="cls-1" d="M15.767,57.955V52.41L13.2,56.763H12.99L10.42,52.41v5.545h-0.3V51.823h0.276l2.7,4.569,2.7-4.569h0.276v6.133h-0.3Zm6-.276v0.276H17.724V51.823h3.967V52.1H18.026v2.582h3.208v0.276H18.026v2.721h3.742Zm6.907,0.276V52.41l-2.57,4.353H25.9l-2.57-4.353v5.545h-0.3V51.823H23.3L26,56.392l2.7-4.569h0.276v6.133h-0.3Zm6.39-1.589a1.54,1.54,0,0,1-.125.617,1.6,1.6,0,0,1-.845.847,1.514,1.514,0,0,1-.608.125H30.633V51.823H33.41a1.207,1.207,0,0,1,.578.138,1.443,1.443,0,0,1,.44.358,1.641,1.641,0,0,1,.28.5,1.69,1.69,0,0,1,.1.566,1.632,1.632,0,0,1-.233.855,1.384,1.384,0,0,1-.647.57,1.586,1.586,0,0,1,.832.587,1.572,1.572,0,0,1,.228.453A1.7,1.7,0,0,1,35.065,56.366ZM30.935,52.1v2.626h2.371a1.057,1.057,0,0,0,.487-0.112,1.236,1.236,0,0,0,.38-0.3,1.438,1.438,0,0,0,.25-0.419,1.327,1.327,0,0,0,.09-0.484,1.448,1.448,0,0,0-.086-0.5A1.4,1.4,0,0,0,34.19,52.5a1.151,1.151,0,0,0-.362-0.29,1.022,1.022,0,0,0-.47-0.108H30.935Zm3.837,4.241a1.4,1.4,0,0,0-.095-0.505,1.42,1.42,0,0,0-.258-0.432,1.277,1.277,0,0,0-.388-0.3,1.066,1.066,0,0,0-.483-0.112H30.935v2.686h2.553a1.138,1.138,0,0,0,.5-0.112,1.365,1.365,0,0,0,.41-0.3,1.421,1.421,0,0,0,.276-0.432A1.29,1.29,0,0,0,34.772,56.34Zm5.579,1.339v0.276H36.307V51.823h3.967V52.1H36.609v2.582h3.208v0.276H36.609v2.721h3.742Zm1.259,0.276V51.823h2.518a1.535,1.535,0,0,1,.7.164,1.857,1.857,0,0,1,.556.428,1.961,1.961,0,0,1,.362.6,1.889,1.889,0,0,1,.129.682,2.093,2.093,0,0,1-.108.674,1.872,1.872,0,0,1-.306.57,1.723,1.723,0,0,1-.474.415,1.481,1.481,0,0,1-.612.2l1.535,2.4H45.569l-1.518-2.367H41.912v2.367h-0.3Zm0.3-2.643H44.18a1.23,1.23,0,0,0,.582-0.138,1.4,1.4,0,0,0,.444-0.363,1.664,1.664,0,0,0,.28-0.518,1.853,1.853,0,0,0,.1-0.6,1.591,1.591,0,0,0-.117-0.6,1.706,1.706,0,0,0-.315-0.51,1.569,1.569,0,0,0-.466-0.354A1.257,1.257,0,0,0,44.12,52.1H41.912v3.213Zm8.813-2.583a1.9,1.9,0,0,0-.742-0.523,2.721,2.721,0,0,0-.949-0.151,2.179,2.179,0,0,0-1.414.371,1.235,1.235,0,0,0-.44.993,1.141,1.141,0,0,0,.108.523,0.936,0.936,0,0,0,.332.358,2.079,2.079,0,0,0,.578.246q0.353,0.1.845,0.2t0.905,0.225a2.645,2.645,0,0,1,.69.307,1.323,1.323,0,0,1,.44.462,1.376,1.376,0,0,1,.155.682,1.473,1.473,0,0,1-.151.682,1.345,1.345,0,0,1-.435.492,2.043,2.043,0,0,1-.686.3,3.722,3.722,0,0,1-.893.1,3.6,3.6,0,0,1-1.319-.229,3.333,3.333,0,0,1-1.087-.7l0.181-.216a2.887,2.887,0,0,0,.983.665,3.292,3.292,0,0,0,1.251.224,2.514,2.514,0,0,0,1.358-.315,1.062,1.062,0,0,0,.5-0.963,1.181,1.181,0,0,0-.121-0.557,1.047,1.047,0,0,0-.366-0.389,2.506,2.506,0,0,0-.621-0.276q-0.375-.117-0.884-0.22T48.056,54.8a2.4,2.4,0,0,1-.647-0.285,1.154,1.154,0,0,1-.4-0.423,1.328,1.328,0,0,1-.134-0.63,1.611,1.611,0,0,1,.155-0.721,1.458,1.458,0,0,1,.435-0.527,2.025,2.025,0,0,1,.677-0.324,3.225,3.225,0,0,1,.88-0.112,2.892,2.892,0,0,1,1.043.173,2.3,2.3,0,0,1,.819.553ZM18.965,38.983A4.055,4.055,0,0,1,21.516,40.5a4.7,4.7,0,0,1,.977,3.014,4.881,4.881,0,0,1-.47,2.162,4.682,4.682,0,0,1-1.32,1.64,6.176,6.176,0,0,1-2.069,1.043,9.463,9.463,0,0,1-2.742.369,8.77,8.77,0,0,1-3.415-.623A6.352,6.352,0,0,1,10,46.282l1.93-2.416a4.619,4.619,0,0,0,1.574,1.3,5.08,5.08,0,0,0,2.285.458,3.887,3.887,0,0,0,2.361-.61,2.2,2.2,0,0,0,.813-1.882,2.4,2.4,0,0,0-.94-2.035,4.687,4.687,0,0,0-2.844-.712H14.47V37.838h0.787a3.778,3.778,0,0,0,2.438-.7,2.206,2.206,0,0,0,.863-1.793,1.781,1.781,0,0,0-.711-1.551,3.115,3.115,0,0,0-1.854-.509,4.119,4.119,0,0,0-2.095.534,4.2,4.2,0,0,0-1.511,1.5L10.255,32.93a4.121,4.121,0,0,1,1.016-1.055,7.109,7.109,0,0,1,1.435-.814,8.885,8.885,0,0,1,1.739-.534,9.679,9.679,0,0,1,1.93-.191,7.957,7.957,0,0,1,2.361.331,5.949,5.949,0,0,1,1.841.916,3.945,3.945,0,0,1,1.612,3.255,4.562,4.562,0,0,1-.229,1.45,4.191,4.191,0,0,1-.66,1.246,4.035,4.035,0,0,1-1.028.941A3.569,3.569,0,0,1,18.965,38.983Zm18.713,0.661a4.952,4.952,0,0,1-.52,2.289,5.463,5.463,0,0,1-1.422,1.755,6.48,6.48,0,0,1-2.095,1.132,8.048,8.048,0,0,1-2.539.394,7.6,7.6,0,0,1-2.539-.42,6.432,6.432,0,0,1-2.082-1.183,5.568,5.568,0,0,1-1.4-1.806,5.155,5.155,0,0,1-.508-2.289,3.835,3.835,0,0,1,.254-1.412,4.871,4.871,0,0,1,.66-1.183,5.6,5.6,0,0,1,.9-0.941,5.39,5.39,0,0,1,1-.661,4.262,4.262,0,0,1-1.6-1.373,3.359,3.359,0,0,1-.66-2.009,4.159,4.159,0,0,1,.546-2.149A5.123,5.123,0,0,1,27.1,28.225a6.657,6.657,0,0,1,1.93-.966,6.971,6.971,0,0,1,2.095-.331,7.4,7.4,0,0,1,2.095.318,6.21,6.21,0,0,1,1.943.954,5.35,5.35,0,0,1,1.422,1.564,4.089,4.089,0,0,1,.559,2.149,3.255,3.255,0,0,1-.178,1.055,3.726,3.726,0,0,1-.5.966,4.188,4.188,0,0,1-.749.8,4.395,4.395,0,0,1-.914.585,5.66,5.66,0,0,1,1.066.7,5.52,5.52,0,0,1,.914.967,4.745,4.745,0,0,1,.648,1.208A4.2,4.2,0,0,1,37.678,39.644Zm-3.453-.2a2.429,2.429,0,0,0-.267-1.145,2.575,2.575,0,0,0-.711-0.852,3.233,3.233,0,0,0-1-.521,3.748,3.748,0,0,0-1.143-.178,3.587,3.587,0,0,0-1.168.191,2.979,2.979,0,0,0-.978.547,2.751,2.751,0,0,0-.673.852,2.39,2.39,0,0,0-.254,1.106,2.3,2.3,0,0,0,.267,1.106,2.829,2.829,0,0,0,.7.852,3.126,3.126,0,0,0,.99.547,3.514,3.514,0,0,0,1.143.191,3.383,3.383,0,0,0,1.168-.2,3.331,3.331,0,0,0,.99-0.559,2.674,2.674,0,0,0,.686-0.852A2.338,2.338,0,0,0,34.225,39.441Zm-5.637-7.4a1.819,1.819,0,0,0,.228.928,2.121,2.121,0,0,0,.6.661,2.806,2.806,0,0,0,.813.407,2.983,2.983,0,0,0,.9.14,3.029,3.029,0,0,0,.889-0.14,2.614,2.614,0,0,0,.825-0.42,2.267,2.267,0,0,0,.6-0.674,1.819,1.819,0,0,0,.228-0.928,1.779,1.779,0,0,0-.749-1.5,2.949,2.949,0,0,0-1.815-.559,2.809,2.809,0,0,0-1.777.572A1.822,1.822,0,0,0,28.588,32.04Zm19.881,6.943A4.055,4.055,0,0,1,51.021,40.5,4.7,4.7,0,0,1,52,43.51a4.881,4.881,0,0,1-.47,2.162,4.681,4.681,0,0,1-1.32,1.64,6.177,6.177,0,0,1-2.069,1.043,9.463,9.463,0,0,1-2.742.369,8.77,8.77,0,0,1-3.415-.623,6.352,6.352,0,0,1-2.476-1.818l1.93-2.416a4.619,4.619,0,0,0,1.574,1.3,5.08,5.08,0,0,0,2.285.458,3.887,3.887,0,0,0,2.361-.61,2.2,2.2,0,0,0,.813-1.882,2.4,2.4,0,0,0-.94-2.035,4.688,4.688,0,0,0-2.844-.712H43.975V37.838h0.787a3.778,3.778,0,0,0,2.438-.7,2.205,2.205,0,0,0,.863-1.793,1.781,1.781,0,0,0-.711-1.551,3.115,3.115,0,0,0-1.854-.509,4.119,4.119,0,0,0-2.095.534,4.2,4.2,0,0,0-1.511,1.5L39.76,32.93a4.121,4.121,0,0,1,1.016-1.055,7.106,7.106,0,0,1,1.435-.814,8.885,8.885,0,0,1,1.739-.534,9.679,9.679,0,0,1,1.93-.191,7.957,7.957,0,0,1,2.361.331,5.95,5.95,0,0,1,1.841.916,3.945,3.945,0,0,1,1.612,3.255,4.56,4.56,0,0,1-.229,1.45,4.188,4.188,0,0,1-.66,1.246,4.035,4.035,0,0,1-1.028.941A3.57,3.57,0,0,1,48.469,38.983ZM40.228,8.671a0.42,0.42,0,0,1,.105-0.021,0.1,0.1,0,0,0-.03.073,0.116,0.116,0,0,0,.125.1,0.113,0.113,0,0,0,.114-0.113,0.1,0.1,0,0,0-.071-0.083,0.8,0.8,0,0,0,.116-0.015c-0.009.013-.01,0.031,0.011,0.032a0.324,0.324,0,0,0,.253-0.066,0.023,0.023,0,0,0-.03-0.036l-0.154.039a0.152,0.152,0,0,0,.069-0.1c0.005-.029-0.042-0.035-0.048-0.005a0.665,0.665,0,0,1-.48.154A0.024,0.024,0,0,0,40.228,8.671Zm9.045,6.458-1.09-.034a0.309,0.309,0,0,0,.261-0.346L48.284,11.2a0.309,0.309,0,0,0-.292-0.321,0.255,0.255,0,0,0-.192.108l-0.021-.015c1.049-2.082-.255-4.1-1.337-4.014-1.071-.108-2.393,1.613-1.489,3.845a0.221,0.221,0,0,0-.06-0.022,0.311,0.311,0,0,0-.312.3l-0.4,3.53a0.282,0.282,0,1,0,.551.059l0.3-2.68a3.66,3.66,0,0,1,.311,1.427c-0.019.386-.859,4.592-0.859,4.592l0.837,0.1-0.256,4.036a0.365,0.365,0,0,0,.694.022l0.307-4.034,0.226,0.007,0.039,4.045a0.364,0.364,0,0,0,.694.022l0.011-4.044,0.841-.05s-0.062-.471-0.144-1.11l1.473,0.046ZM46.9,11.143l-0.029.036a1.322,1.322,0,0,1-.473.348,1.311,1.311,0,0,1-.446-0.376c-0.069-.092-0.125-0.172-0.175-0.244l0.038-1a0.8,0.8,0,0,0,.535.263,0.733,0.733,0,0,0,.565-0.251Zm0.592,3.93c-0.095-.782-0.169-1.447-0.166-1.589a3.764,3.764,0,0,1,.438-1.473l0.126,2.762a0.31,0.31,0,0,0,.29.321Zm-4.173-.878-1.085.107a0.307,0.307,0,0,0,.213-0.376l-0.638-3.5a0.311,0.311,0,0,0-.333-0.28,0.252,0.252,0,0,0-.175.13,1.752,1.752,0,0,0-.276-0.125,6.22,6.22,0,0,0,.036-1.226c-0.1-1.2-.834-2.079-1.59-2.018S38.084,8.1,38.186,9.3a3.829,3.829,0,0,0,.337,1.2,0.24,0.24,0,0,0-.132-0.042,0.31,0.31,0,0,0-.269.339l0.085,3.55a0.282,0.282,0,1,0,.554-0.013L38.7,11.636a3.669,3.669,0,0,1,.5,1.374c0.029,0.337-.289,8.253-0.34,9.073l1.75-.141h0l2.5-.2C43,21.353,42.4,18.618,41.9,16.274l1.623-.16Zm-3.237-3.932A1.439,1.439,0,0,1,38.977,8.94a1,1,0,1,1,1.977-.16A1.362,1.362,0,0,1,40.083,10.263Zm1.405,4.113c-0.182-.858-0.308-1.469-0.318-1.56a3.75,3.75,0,0,1,.236-1.516l0.5,2.722a0.312,0.312,0,0,0,.33.281Zm-2.32-5.831c-0.008-.029-0.052-0.01-0.044.018a0.15,0.15,0,0,0,.1.1,0.263,0.263,0,0,1-.179-0.036c-0.025-.017-0.054.021-0.028,0.038a0.3,0.3,0,0,0,.257.041,0.02,0.02,0,0,0,.013-0.032,1.035,1.035,0,0,0,.151,0,0.1,0.1,0,0,0-.054.087,0.115,0.115,0,0,0,.125.1,0.113,0.113,0,0,0,.113-0.112,0.1,0.1,0,0,0-.033-0.064,0.345,0.345,0,0,1,.059.006,0.023,0.023,0,0,0,.018-0.043A0.653,0.653,0,0,1,39.168,8.545Zm-2.155,3.77L36.8,7.648a0.409,0.409,0,0,0-.39-0.422,0.338,0.338,0,0,0-.251.136l-0.029-.023c1.392-2.736-.345-5.39-1.787-5.273-1.428-.143-3.192,2.121-1.985,5.059A0.31,0.31,0,0,0,32.276,7.1a0.413,0.413,0,0,0-.417.4l-0.527,4.645a0.4,0.4,0,0,0,.317.474,0.411,0.411,0,0,0,.417-0.4l0.4-3.526a4.768,4.768,0,0,1,.415,1.878c-0.025.508-1.145,6.042-1.145,6.042l1.116,0.136L32.51,22.057a0.488,0.488,0,0,0,.926.029l0.409-5.308,0.3,0.009L34.2,22.109a0.487,0.487,0,0,0,.925.029l0.015-5.321,1.122-.066s-0.083-.62-0.192-1.461l1.964,0.061,0.085-2.537-1.453-.045A0.409,0.409,0,0,0,37.013,12.314ZM34.956,7.569l-0.039.047a1.811,1.811,0,0,1-.63.46,1.784,1.784,0,0,1-.6-0.5c-0.092-.12-0.167-0.226-0.233-0.321l0.051-1.312a1.076,1.076,0,0,0,.714.346,0.982,0.982,0,0,0,.753-0.33Zm0.789,5.171c-0.126-1.029-.225-1.9-0.221-2.09a4.9,4.9,0,0,1,.584-1.938l0.168,3.635a0.41,0.41,0,0,0,.386.422Zm-5.564-1.155-1.446.141a0.4,0.4,0,0,0,.283-0.5l-0.85-4.6a0.414,0.414,0,0,0-.445-0.369,0.336,0.336,0,0,0-.233.17,2.344,2.344,0,0,0-.362-0.168,8.062,8.062,0,0,0,.042-1.61C27.035,3.072,26.058,1.92,25.05,2S23.2,3.559,23.335,5.144a5.031,5.031,0,0,0,.447,1.572,0.32,0.32,0,0,0-.173-0.053,0.409,0.409,0,0,0-.358.447l0.113,4.671a0.375,0.375,0,1,0,.738-0.017L24.016,8.219a4.792,4.792,0,0,1,.668,1.808c0.039,0.444-.386,10.859-0.453,11.938l2.334-.186h0l3.333-.266c-0.14-.509-0.943-4.108-1.618-7.192l2.164-.21ZM25.865,6.411A1.9,1.9,0,0,1,24.39,4.671a1.264,1.264,0,0,1,1.194-1.555A1.281,1.281,0,0,1,27.026,4.46,1.792,1.792,0,0,1,25.865,6.411Zm1.874,5.412c-0.243-1.131-.41-1.933-0.425-2.052a4.882,4.882,0,0,1,.314-2l0.664,3.582a0.415,0.415,0,0,0,.44.369Zm-1.68-7.506a0.561,0.561,0,0,1,.14-0.028,0.131,0.131,0,0,0-.04.1,0.154,0.154,0,0,0,.168.132,0.15,0.15,0,0,0,.151-0.148,0.133,0.133,0,0,0-.095-0.11,1.085,1.085,0,0,0,.154-0.019c-0.012.017-.013,0.041,0.014,0.043A0.438,0.438,0,0,0,26.889,4.2a0.031,0.031,0,0,0-.04-0.048l-0.2.052a0.2,0.2,0,0,0,.092-0.135c0.007-.039-0.056-0.046-0.063-0.007a0.9,0.9,0,0,1-.64.2A0.031,0.031,0,0,0,26.058,4.317Zm-1.414-.167c-0.011-.038-0.069-0.013-0.058.024a0.2,0.2,0,0,0,.134.136,0.359,0.359,0,0,1-.238-0.047c-0.034-.022-0.072.027-0.038,0.05a0.409,0.409,0,0,0,.342.053A0.026,0.026,0,0,0,24.8,4.325a1.351,1.351,0,0,0,.2,0,0.129,0.129,0,0,0-.072.114,0.152,0.152,0,0,0,.166.133,0.149,0.149,0,0,0,.151-0.148,0.127,0.127,0,0,0-.044-0.083,0.453,0.453,0,0,1,.078.007A0.031,0.031,0,0,0,25.309,4.3,0.88,0.88,0,0,1,24.644,4.151ZM22.418,14.34l-0.161-3.547a0.309,0.309,0,0,0-.292-0.321,0.254,0.254,0,0,0-.192.108l-0.021-.016c1.049-2.081-.253-4.1-1.335-4.014-1.071-.11-2.4,1.611-1.491,3.845a0.216,0.216,0,0,0-.06-0.022,0.311,0.311,0,0,0-.312.3l-0.4,3.53a0.282,0.282,0,1,0,.551.059l0.3-2.68a3.655,3.655,0,0,1,.311,1.428C19.3,13.4,18.461,17.6,18.461,17.6l0.837,0.1-0.257,4.037a0.365,0.365,0,0,0,.695.022l0.307-4.034,0.226,0.007,0.04,4.045a0.364,0.364,0,0,0,.694.022l0.011-4.044,0.841-.05s-0.062-.471-0.144-1.11l1.473,0.046,0.064-1.928-1.09-.034A0.309,0.309,0,0,0,22.418,14.34Zm-1.543-3.606-0.029.036a1.322,1.322,0,0,1-.473.348,1.3,1.3,0,0,1-.447-0.376c-0.069-.091-0.125-0.172-0.175-0.244l0.038-1a0.8,0.8,0,0,0,.535.263,0.732,0.732,0,0,0,.565-0.251Zm0.592,3.931c-0.095-.783-0.169-1.447-0.166-1.589a3.767,3.767,0,0,1,.438-1.473l0.126,2.762a0.31,0.31,0,0,0,.29.321ZM13.142,8.135c-0.008-.029-0.052-0.01-0.044.018a0.15,0.15,0,0,0,.1.1,0.264,0.264,0,0,1-.179-0.036c-0.025-.017-0.054.021-0.028,0.038a0.3,0.3,0,0,0,.257.041,0.02,0.02,0,0,0,.013-0.032,1.048,1.048,0,0,0,.151,0,0.1,0.1,0,0,0-.054.087,0.115,0.115,0,0,0,.125.1A0.113,0.113,0,0,0,13.6,8.347a0.1,0.1,0,0,0-.033-0.064,0.373,0.373,0,0,1,.059.006,0.023,0.023,0,0,0,.018-0.043A0.652,0.652,0,0,1,13.142,8.135ZM14.2,8.262a0.4,0.4,0,0,1,.105-0.021,0.1,0.1,0,0,0-.03.073,0.116,0.116,0,0,0,.126.1A0.113,0.113,0,0,0,14.516,8.3a0.1,0.1,0,0,0-.071-0.083A0.8,0.8,0,0,0,14.561,8.2c-0.009.013-.01,0.031,0.011,0.033a0.325,0.325,0,0,0,.253-0.066A0.023,0.023,0,0,0,14.8,8.134l-0.154.039a0.151,0.151,0,0,0,.069-0.1c0-.03-0.042-0.035-0.048-0.005a0.665,0.665,0,0,1-.48.154A0.024,0.024,0,0,0,14.2,8.262Zm3.092,5.524-1.084.107a0.308,0.308,0,0,0,.212-0.376l-0.638-3.495a0.311,0.311,0,0,0-.333-0.28,0.251,0.251,0,0,0-.175.13A1.755,1.755,0,0,0,15,9.746a6.2,6.2,0,0,0,.036-1.226c-0.1-1.2-.834-2.08-1.59-2.018s-1.388,1.184-1.287,2.389a3.829,3.829,0,0,0,.337,1.2,0.24,0.24,0,0,0-.132-0.042,0.31,0.31,0,0,0-.269.339l0.085,3.55a0.282,0.282,0,1,0,.554-0.013L12.67,11.227a3.666,3.666,0,0,1,.5,1.374c0.029,0.337-.289,8.253-0.34,9.073l1.75-.141h0l2.5-.2c-0.105-.387-0.707-3.122-1.213-5.466l1.623-.16ZM14.057,9.853A1.439,1.439,0,0,1,12.951,8.53a1,1,0,1,1,1.977-.16A1.362,1.362,0,0,1,14.057,9.853Zm1.405,4.113c-0.182-.858-0.308-1.469-0.318-1.559a3.75,3.75,0,0,1,.236-1.517l0.5,2.722a0.312,0.312,0,0,0,.329.28Z"/>
</svg>
