<svg xmlns="http://www.w3.org/2000/svg" width="67.866" height="59.875" viewBox="0 0 1928 1701">
  <defs>
    <style>
      .cls-1 {
        fill: #fff;
        fill-rule: evenodd;
      }
    </style>
  </defs>
  <path class="cls-1" d="M1351.76,1553c-187.05,0-339.23-151.72-339.23-338.21s152.18-338.207,339.23-338.207,339.23,151.717,339.23,338.207S1538.81,1553,1351.76,1553Zm0-616.7c-154.03,0-279.33,124.928-279.33,278.488s125.3,278.49,279.33,278.49,279.33-124.93,279.33-278.49S1505.78,936.3,1351.76,936.3Zm181.02,305.1v-54.14l-33.21-2.68-3.37-14.74,29.43-19.56-27.22-48.24-30.01,18.22-11.77-15.01,14.54-26.8-49.45-30.01-17.96,30.01-16.07-7.23v-29.41h-58.43l2.68,32.26-19.89,2.52-18.81-28.02-48.39,27.8,19.89,29.43-15.59,13.89-30.11-13.99-24.73,48.67,28.49,15.34-5.95,15.41-39.28,4.29v49.85l39.28,4.28,4.86,15.41-27.95,15.35,25.01,48.67,30.24-13.98,15.66,13.91-19.86,29.47,48.41,27.86,18.82-27.87,19.9,4.29-2.68,34.31h58.43v-33.51l16.08-7.24,17.58,30.02,49.65-30.02-14.42-26.8,11.88-15.01,30.13,18.23,27.43-48.24-29.03-19.57,2.57-14.74Zm-173.68,73.97c-55.83,0-101.08-45.12-101.08-100.77s45.25-100.77,101.08-100.77,101.07,45.12,101.07,100.77S1414.92,1315.37,1359.1,1315.37ZM1123.65,1460.8H407.436c-12.676,0-20.344-11.86-20.344-24.5V1328.29c0-12.63,7.668-22.12,20.344-22.12H1042.51a327.752,327.752,0,0,1-6.02-62.38c0-10.39.52-17.43,1.53-32.39H407.436c-12.676,0-20.344-7.76-20.344-20.4V605.881c0-12.638,7.668-22.955,20.344-22.955h723.6c12.67,0,21.51,10.317,21.51,22.955V1002.74c30.02-21.506,60.04-38.531,95.06-49.96v-592.2c0-12.637,8.46-22.06,21.13-22.06h11.95c12.67,0,21.95-11.066,21.95-23.7v-45.76c0-12.638-9.28-25.306-21.95-25.306H1100.14c-12.67,0-22.63-7.822-22.63-20.46V170.2c0-12.638-10.59-21.223-23.27-21.223h-45.9c-12.674,0-20.888,8.585-20.888,21.223v53.087c0,12.638-12.337,20.46-25.014,20.46H257.783c-12.676,0-20.781,12.668-20.781,25.306v45.76c0,12.638,8.1,23.7,20.781,23.7h11.943c12.676,0,22.309,9.423,22.309,22.06V1436.3c0,12.64-9.633,24.5-22.309,24.5H257.783c-12.676,0-20.781,8.63-20.781,21.26v45.76c0,12.64,8.1,22.76,20.781,22.76h1022.9c3.76,0,7.3-.05,10.43-1.64A311.5,311.5,0,0,1,1123.65,1460.8ZM387.092,360.579c0-12.637,7.668-22.06,20.344-22.06h723.6c12.67,0,21.51,9.423,21.51,22.06V491.472l1.44-3.316H407.436c-12.676,0-20.344-6.929-20.344-19.567V360.579ZM769.235,639.746L735.148,677.43c-13.785,15.236-134.664,152.049-134.664,262.333,0,92.767,75.7,168.237,168.751,168.237s168.751-75.47,168.751-168.237c0-110.284-120.88-247.1-134.664-262.333Zm0,376.734a76.918,76.918,0,0,1-76.948-76.717c0-29.508,18.853-74.062,53.076-125.457,8.186-12.288,16.427-23.729,24.023-33.8,37.644,50.05,76.8,116.009,76.8,159.255A76.922,76.922,0,0,1,769.235,1016.48Z"/>
</svg>
