<svg xmlns="http://www.w3.org/2000/svg" width="67.866" height="59.875" viewBox="0 0 1928 1701">
  <defs>
    <style>
      .cls-1 {
        fill: #fff;
        fill-rule: evenodd;
      }
    </style>
  </defs>
  <path id="Shape_1_copy_6" data-name="Shape 1 copy 6" class="cls-1" d="M1543.86,597.208a27.79,27.79,0,0,0-27.68,27.891v8.366a27.676,27.676,0,1,0,55.35,0V625.1A27.775,27.775,0,0,0,1543.86,597.208ZM1566,973.4v-24.8h15.12a27.784,27.784,0,0,0,27.68-27.891v-100.4a27.783,27.783,0,0,0-27.68-27.89h-9.58V719.92a27.676,27.676,0,1,0-55.35,0v72.509H1498.3a27.781,27.781,0,0,0-27.67,27.89v100.4a27.781,27.781,0,0,0,27.67,27.891h12.36v47.41a27.77,27.77,0,0,0,27.67,27.885,20.476,20.476,0,0,1,0,40.95c-7.59,0-20.32-1.81-20.32-13.95a27.676,27.676,0,1,0-55.35,0c0,40.4,31.83,69.72,75.67,69.72,41.72,0,75.67-34.2,75.67-76.25A76.385,76.385,0,0,0,1566,973.4Zm-12.55-80.58h-27.48V848.206h27.48v44.618Zm34.38-386.461L735.763,247.412V178.889a27.783,27.783,0,0,0-27.674-27.9H602.925a27.781,27.781,0,0,0-27.673,27.891v77.738L322.01,513.406a28.051,28.051,0,0,0-5.924,30.373,27.676,27.676,0,0,0,25.553,17.177H575.254V1288.5l-0.025.03-130.07,220.32a28.072,28.072,0,0,0-.273,28.04A27.644,27.644,0,0,0,468.941,1551H948.857v-0.01a27.663,27.663,0,0,0,25.756-17.69,28.017,28.017,0,0,0-6.919-30.62L735.76,1285.45V560.956h844.07A27.918,27.918,0,0,0,1587.83,506.363ZM575.249,505.179H408.158L575.249,335.754V505.179Zm0,990.041H517.608l57.644-97.64v97.64Zm105.164,0H630.6V560.956h49.817V1495.22Zm0-990.041H630.6V296.015h49.817V505.179Zm0-264.94H630.6V206.771h49.817v33.468ZM735.763,1361.6l142.666,133.61H735.763V1361.6Zm0-1055.933,119.91,36.44L735.763,462.946V305.667Zm36.371,199.512L901.81,374.505l129.67,130.674H772.134Zm322.016-15.735L987.788,382.263l163.422,49.673Zm62.66,15.735,54.55-54.972,180.87,54.972H1156.81Z"/>
</svg>
