<svg xmlns="http://www.w3.org/2000/svg" width="67.866" height="59.875" viewBox="0 0 1928 1701">
  <defs>
    <style>
      .cls-1 {
        fill: #fff;
        fill-rule: evenodd;
      }
    </style>
  </defs>
  <path id="Forma_1_copy_3" data-name="Forma 1 copy 3" class="cls-1" d="M716.283,833.993c1.014-16.583,2.028-33.214,4.2-49.991,4.008-39.808,12.6-79.761,21.389-118.646,5.358-19.4,11.152-38.55,17.237-57.264,7.771-18.279,15.4-36.463,22.98-54.208,17.189-34.671,36.4-67.058,59.34-94.166,5.455-6.979,10.862-13.767,16.125-20.56,6.036-6.056,12.069-11.921,17.913-17.791,12.264-11.151,22.934-23.226,35.2-32.1,24.431-18.18,46.061-35.441,68.079-46.157,21.2-11.88,39.4-22.208,55.809-28.024,32.16-12.993,50.41-19.541,50.41-19.541s-15.55,12.413-42.78,32.535c-14.05,9.21-28.92,23.76-46.685,38.645-18.446,14.206-35.2,34.567-55.09,54.063-9.946,9.985-17.671,22.494-27.085,34.038q-6.882,8.8-14.1,17.8c-3.91,6.644-7.966,13.283-12.068,20.072-17.574,26.136-30.706,56.829-44.372,87.957q-8.4,24.432-17.091,49.5c-3.959,17.36-8.351,34.911-13.132,52.367-7.194,35.929-14.244,72.537-17.283,110.21-2.126,13.676-3.14,27.443-4.4,41.314,297.993,0.046,528.633.24,851.393,0.24,1.11-14.2,1.69-28.6,1.69-43.053,0-272.985-198.1-497.821-452.93-527.591a84.415,84.415,0,1,0-115.05,0C821.1,293.408,623.052,518.244,623.052,791.229c0,14.4.529,28.607,1.592,42.764h91.639ZM530.158,865.555H1737V972.52H530.158V865.555ZM1241.58,1048.4c-61.36,29.92-275.247,107.4-275.247,107.4l-252.8-15.9s144.6-40.39,200.656-53.05c56.154-12.6,31.723-76.22.678-76.22s-301.615,11.25-301.615,11.25L433.6,1086.85l47.557,302.27s36.986-63.61,73.873-63.61c37.029,0,357.812,8.58,401.362,0,43.55-8.68,308.9-190.94,340.673-212.23C1328.73,1092.09,1303.09,1018.44,1241.58,1048.4ZM192,1119.34v391.78l275.25-51.74L398.4,1082.87Z"/>
</svg>
