<svg xmlns="http://www.w3.org/2000/svg" width="67.866" height="59.875" viewBox="0 0 1928 1701">
  <defs>
    <style>
      .cls-1 {
        fill: #fff;
        fill-rule: evenodd;
      }
    </style>
  </defs>
  <path id="Forma_1_copy_2" data-name="Forma 1 copy 2" class="cls-1" d="M344.542,938.738c-0.042.023-.089,0.049-0.133,0.071a35.934,35.934,0,0,0-16.832,46.057A36.675,36.675,0,0,0,372.8,1005.13L883.645,837.148l-95.522,154.17a28.993,28.993,0,0,0,3.589,35.212,29.843,29.843,0,0,0,35.286,6l100.175-51.452a29.418,29.418,0,0,0,7.729-5.722L1231.66,668.972,1597.9,480.1c138.71-73.9,122.64-130.709,114.41-146.353-6.37-12.132-20.63-28.4-52.31-37-32.14-8.725-75.55-8.029-132.71,2.132-19.08,3.388-29.61,3.1-40.76,2.8-39.2-1.059-65.8,1.537-197.83,69.345L566.554,741.937,286.5,598.288a36.932,36.932,0,0,0-33.686.011l-47.189,24.242a36.172,36.172,0,0,0-18.907,24.6,35.811,35.811,0,0,0,7.261,30.054L388.358,916.475ZM1674.45,1229.42H307.293c-38.442,0-69.61,30.8-69.61,68.8s31.168,68.8,69.61,68.8H1674.45c38.44,0,69.61-30.8,69.61-68.8S1712.89,1229.42,1674.45,1229.42Z"/>
</svg>
