<?xml version="1.0" encoding="utf-8"?>
<!-- Generator: Adobe Illustrator 21.0.0, SVG Export Plug-In . SVG Version: 6.00 Build 0)  -->
<svg version="1.1" id="Layer_1" xmlns="http://www.w3.org/2000/svg" xmlns:xlink="http://www.w3.org/1999/xlink" x="0px" y="0px"
	 viewBox="0 0 79 91" style="enable-background:new 0 0 79 91;" xml:space="preserve">
<style type="text/css">
	.st0{fill:#FFFFFF;}
</style>
<path class="st0" d="M37.4,24.1C37.2,24,37,24,36.7,24c-0.2,0-0.3-0.2-0.3-0.3c0,0,0,0,0,0c0-0.5,0-1,0-1.5c0-0.2,0.1-0.4,0.3-0.4
	c0.2-0.1,0.5-0.1,0.7-0.2c0.2,0,0.4-0.2,0.4-0.4c0,0,0,0,0-0.1c-0.1-0.4-0.2-0.8-0.3-1.2c0-0.2-0.2-0.4-0.5-0.4c0,0-0.1,0-0.1,0
	c-0.2,0-0.4,0.1-0.7,0.1c-0.2,0.1-0.4,0-0.5-0.2c0,0,0,0,0-0.1c-0.1-0.1-0.1-0.3-0.2-0.4c-0.1-0.3-0.3-0.6-0.4-0.9
	c-0.1-0.2,0-0.3,0.2-0.4c0,0,0,0,0,0c0.2-0.1,0.4-0.3,0.6-0.4c0.2-0.1,0.3-0.3,0.2-0.5c0,0,0-0.1-0.1-0.1c-0.2-0.4-0.5-0.7-0.7-1
	c-0.1-0.2-0.3-0.2-0.5-0.1c0,0,0,0,0,0c-0.2,0.1-0.4,0.3-0.6,0.4c-0.2,0.1-0.4,0.1-0.5,0c0,0,0,0,0,0c-0.3-0.3-0.7-0.6-1-0.9
	c-0.2-0.1-0.2-0.3-0.1-0.5c0,0,0,0,0.1-0.1c0.1-0.2,0.2-0.4,0.4-0.5c0.1-0.2,0.1-0.4,0-0.6c0,0-0.1-0.1-0.1-0.1l-1-0.6
	c-0.2-0.2-0.4-0.1-0.6,0c0,0-0.1,0.1-0.1,0.1c-0.1,0.2-0.2,0.4-0.4,0.6c-0.1,0.2-0.3,0.3-0.5,0.2c-0.5-0.2-1-0.4-1.4-0.6
	c-0.1,0-0.2-0.2-0.2-0.3c0,0,0,0,0,0c0.1-0.2,0.1-0.5,0.1-0.7c0.1-0.2,0-0.4-0.2-0.5c0,0-0.1,0-0.1,0c-0.4-0.1-0.8-0.2-1.2-0.2
	c-0.2-0.1-0.4,0-0.4,0.2c0,0,0,0,0,0.1c-0.1,0.3-0.1,0.5-0.2,0.8c0,0.2-0.2,0.3-0.3,0.3c0,0,0,0,0,0c-0.5,0-1.1,0-1.6,0
	c-0.1,0-0.3-0.1-0.3-0.3c0,0,0,0,0,0c0-0.3-0.1-0.5-0.2-0.8c0-0.2-0.2-0.4-0.4-0.3c0,0-0.1,0-0.1,0c-0.4,0.1-0.8,0.2-1.2,0.3
	c-0.2,0-0.4,0.2-0.4,0.4c0,0,0,0.1,0,0.1c0,0.2,0.1,0.5,0.1,0.7c0.1,0.2,0,0.4-0.2,0.4c0,0,0,0,0,0c-0.5,0.2-0.9,0.4-1.4,0.6
	c-0.2,0.1-0.4,0-0.5-0.2c-0.1-0.2-0.3-0.4-0.4-0.6c-0.1-0.1-0.1-0.2-0.3-0.2c-0.1,0-0.3,0-0.4,0.1c-0.3,0.2-0.7,0.5-1,0.7
	C18,13.6,17.9,13.8,18,14c0,0,0,0.1,0,0.1c0.1,0.2,0.3,0.4,0.4,0.6c0.1,0.1,0.2,0.3,0,0.5c0,0,0,0,0,0c-0.3,0.3-0.7,0.7-1,1
	c-0.1,0.2-0.4,0.2-0.6,0.1c0,0,0,0,0,0c-0.2-0.1-0.4-0.2-0.6-0.4c-0.2-0.1-0.4-0.1-0.6,0c0,0-0.1,0.1-0.1,0.1
	c-0.2,0.3-0.4,0.7-0.7,1c-0.1,0.1-0.1,0.4,0,0.5c0,0,0.1,0.1,0.1,0.1c0.2,0.1,0.3,0.2,0.5,0.3c0.2,0.1,0.4,0.3,0.3,0.6
	c0,0.1,0,0.1-0.1,0.1c0,0.1-0.1,0.2-0.1,0.2c-0.1,0.3-0.2,0.6-0.4,0.9c0,0.2-0.2,0.3-0.4,0.3c0,0-0.1,0-0.1,0
	c-0.3,0-0.5-0.1-0.8-0.1c-0.2-0.1-0.4,0-0.5,0.2c0,0,0,0.1,0,0.1c-0.1,0.4-0.2,0.8-0.2,1.2c-0.1,0.2,0.1,0.4,0.3,0.5
	c0,0,0.1,0,0.1,0c0.2,0,0.5,0.1,0.7,0.1c0.2,0,0.4,0.2,0.4,0.4c0,0,0,0,0,0.1c0,0.2,0,0.4,0,0.6c0,0.3,0,0.6,0,0.9
	c0,0.2-0.1,0.3-0.3,0.3c0,0,0,0,0,0c-0.3,0-0.5,0.1-0.7,0.2c-0.2,0-0.4,0.2-0.4,0.4c0,0,0,0.1,0,0.1c0.1,0.4,0.2,0.8,0.3,1.2
	c0,0.2,0.2,0.4,0.4,0.3c0,0,0.1,0,0.1,0l0.7-0.1c0.2-0.1,0.4,0,0.5,0.2c0,0,0,0,0,0.1c0.1,0.4,0.3,0.8,0.5,1.2
	c0.1,0.2,0.1,0.4-0.1,0.6c0,0,0,0-0.1,0c-0.2,0.1-0.4,0.2-0.5,0.4c-0.2,0.1-0.3,0.3-0.2,0.5c0,0,0,0.1,0.1,0.1
	c0.2,0.3,0.4,0.7,0.7,1c0.1,0.2,0.4,0.3,0.6,0.2c0,0,0,0,0,0c0.2-0.1,0.4-0.3,0.6-0.4c0.1-0.2,0.4-0.2,0.5,0c0,0,0,0,0.1,0.1
	c0.3,0.3,0.6,0.6,1,0.9c0.2,0.1,0.2,0.3,0.1,0.5c0,0,0,0,0,0c-0.1,0.2-0.3,0.4-0.4,0.6c-0.1,0.2-0.1,0.4,0,0.6c0,0,0.1,0,0.1,0.1
	c0.3,0.2,0.7,0.4,1,0.6c0.2,0.2,0.4,0.1,0.6,0c0,0,0.1-0.1,0.1-0.1c0.1-0.2,0.3-0.4,0.4-0.6c0.1-0.2,0.3-0.2,0.5-0.2
	c0.5,0.2,0.9,0.4,1.4,0.5c0.2,0.1,0.3,0.3,0.2,0.4c0,0,0,0,0,0c0,0.2-0.1,0.5-0.1,0.7c-0.1,0.2,0.1,0.4,0.3,0.5c0,0,0.1,0,0.1,0
	l1.2,0.2c0.2,0.1,0.5,0,0.5-0.2c0,0,0-0.1,0-0.1c0-0.2,0.1-0.4,0.1-0.7c0-0.2,0.2-0.4,0.4-0.4c0,0,0,0,0,0c0.5,0,1,0,1.4,0
	c0.2,0,0.4,0.1,0.4,0.3c0,0,0,0,0,0c0.1,0.3,0.1,0.5,0.2,0.8c0,0.2,0.2,0.3,0.4,0.3c0,0,0,0,0,0c0.4-0.1,0.9-0.2,1.3-0.3
	c0.2,0,0.4-0.2,0.3-0.5c0,0,0,0,0,0c0-0.2-0.1-0.4-0.1-0.6c-0.1-0.2,0-0.4,0.2-0.5c0,0,0.1,0,0.1,0c0.4-0.2,0.8-0.3,1.2-0.5
	c0.2-0.1,0.5,0,0.6,0.2c0,0,0,0,0,0c0.1,0.2,0.2,0.3,0.3,0.5c0.1,0.1,0.2,0.2,0.3,0.3c0.1,0,0.1,0.1,0.2,0.1l0.5-0.3
	c0-0.1,0.1-0.1,0.1-0.1c0.2-0.1,0.3-0.2,0.5-0.3c0.2-0.1,0.3-0.3,0.2-0.5c0-0.1-0.1-0.1-0.1-0.1c-0.1-0.2-0.3-0.4-0.4-0.6
	c-0.1-0.2-0.1-0.4,0.1-0.5c0,0,0.1-0.1,0.1-0.1c0.3-0.3,0.6-0.6,0.9-0.9c0.1-0.1,0.3-0.2,0.5-0.1c0,0,0,0,0,0
	c0.2,0.1,0.4,0.3,0.6,0.4c0.2,0.2,0.5,0.1,0.6,0c0,0,0-0.1,0.1-0.1c0.2-0.3,0.4-0.6,0.6-0.9c0.2-0.2,0.2-0.4,0-0.5
	c0,0-0.1-0.1-0.1-0.1c-0.2-0.1-0.4-0.2-0.6-0.4c-0.2-0.1-0.3-0.3-0.2-0.5c0,0,0,0,0-0.1c0.1-0.1,0.1-0.2,0.2-0.3
	c0.1-0.3,0.2-0.6,0.4-0.9c0-0.2,0.2-0.3,0.4-0.3c0,0,0,0,0.1,0c0.3,0,0.5,0.1,0.8,0.1c0.2,0,0.4-0.1,0.5-0.3
	c0.1-0.4,0.2-0.8,0.2-1.2C37.9,24.4,37.7,24.2,37.4,24.1C37.5,24.1,37.5,24.1,37.4,24.1z M29.5,29.5c0,0-0.1,0.1-0.1,0.1
	c-3.6,2-8.1,0.7-10.1-2.8c-2-3.5-0.8-7.9,2.7-9.9c0,0,0.1,0,0.1-0.1l0,0c3.6-2,8.1-0.8,10.2,2.7c2,3.5,0.8,7.9-2.6,9.9
	C29.6,29.5,29.5,29.5,29.5,29.5z M64.6,9.8c-0.3-0.1-0.6-0.2-0.9-0.3c0,0-0.1-0.1-0.1-0.1c0-0.3,0-0.7,0-1c0-0.1,0-0.1,0.1-0.1
	C64,8,64.3,7.8,64.6,7.6c0.1,0,0.1-0.2,0.1-0.2c-0.1-0.3-0.2-0.6-0.3-0.8c0-0.1-0.1-0.2-0.2-0.1c-0.3,0-0.6,0.1-1,0.1
	c0,0-0.1,0-0.1-0.1c-0.1-0.3-0.3-0.6-0.5-0.8c0,0,0-0.1,0-0.1c0,0,0,0,0,0c0.2-0.3,0.4-0.6,0.6-0.8c0.1-0.1,0.1-0.2,0-0.3
	c0,0,0,0,0,0c-0.2-0.2-0.4-0.5-0.6-0.7c-0.1-0.1-0.2-0.1-0.3,0c-0.2,0.1-0.4,0.2-0.6,0.3c-0.2,0.1-0.3,0.1-0.5,0.3c0,0,0,0-0.1,0
	c-0.3-0.2-0.6-0.3-0.9-0.5c0,0,0,0,0-0.1c0-0.2-0.1-0.4-0.1-0.6S60,2.7,60,2.5c0-0.1-0.1-0.2-0.2-0.2c0,0,0,0,0,0
	c-0.3,0-0.6-0.1-0.9-0.1c-0.1,0-0.2,0-0.2,0.1c-0.1,0.3-0.2,0.6-0.4,0.9c0,0-0.1,0.1-0.1,0.1c-0.4,0-0.7,0-1.1,0c0,0-0.1,0-0.1,0
	c-0.2-0.3-0.4-0.5-0.5-0.8c0-0.1-0.1-0.1-0.2-0.1c-0.1,0-0.1,0-0.2,0c0,0,0,0-0.1,0l-0.7,0.2c-0.1,0-0.1,0.1-0.1,0.2
	c0,0.3,0,0.6,0.1,0.9c0,0.1,0,0.1-0.1,0.2c-0.3,0.2-0.6,0.4-0.9,0.6c0,0.1-0.1,0.1-0.2,0c-0.3-0.2-0.5-0.3-0.8-0.5
	C53.2,4,53.1,4,53,4c-0.2,0.2-0.5,0.4-0.7,0.7c-0.1,0.1-0.1,0.2,0,0.2c0.2,0.3,0.3,0.7,0.5,1c0,0,0,0.1,0,0.1
	c-0.2,0.3-0.3,0.6-0.5,0.9C52.4,7,52.3,7,52.2,7C52,7,51.7,7,51.4,7c-0.1,0-0.2,0.1-0.2,0.2c-0.1,0.3-0.1,0.6-0.2,0.9
	c0,0.1,0,0.2,0.1,0.2c0.3,0.1,0.5,0.3,0.8,0.4c0.1,0,0.1,0.1,0.1,0.1c0,0.3,0,0.6,0,0.9c0,0,0,0.1,0,0.1c-0.3,0.2-0.6,0.5-0.9,0.7
	c-0.1,0-0.1,0.2-0.1,0.3c0,0,0,0,0,0c0.1,0.3,0.2,0.5,0.3,0.8c0,0.1,0.1,0.2,0.2,0.2c0,0,0,0,0,0c0.3,0,0.6-0.1,0.9-0.1
	c0,0,0.1,0,0.1,0.1c0.2,0.3,0.4,0.7,0.7,1c0,0,0,0.1,0,0.1c-0.2,0.3-0.3,0.7-0.5,1c-0.1,0.1,0,0.2,0,0.3c0,0,0,0,0,0
	c0.2,0.2,0.5,0.4,0.7,0.6c0.1,0.1,0.2,0.1,0.3,0c0.3-0.2,0.6-0.4,0.9-0.6c0,0,0.1,0,0.1,0c0.2,0.1,0.5,0.3,0.8,0.4
	c0,0,0.1,0,0.1,0.1c0,0.4,0.1,0.7,0.1,1.1c0,0.1,0.1,0.2,0.2,0.2l0.9,0.2c0.1,0,0.2,0,0.2-0.1c0.2-0.3,0.3-0.6,0.5-0.9
	c0,0,0.1-0.1,0.1-0.1c0.3,0,0.6,0,1,0c0,0,0.1,0,0.1,0c0.2,0.3,0.4,0.5,0.6,0.8c0,0.1,0.2,0.1,0.3,0.1c0,0,0,0,0,0
	c0.3-0.1,0.6-0.2,0.9-0.3c0.1,0,0.1-0.1,0.1-0.2c0-0.3-0.1-0.6-0.1-0.9c0-0.1,0-0.1,0.1-0.1c0,0,0,0,0,0c0.4-0.2,0.8-0.5,1.1-0.7
	c0,0,0.1,0,0.1,0c0,0,0,0,0,0c0.2,0.2,0.4,0.3,0.5,0.4c0.1,0.1,0.2,0.1,0.3,0c0.3-0.2,0.5-0.3,0.8-0.5c0.1,0,0.1-0.2,0.1-0.2
	c-0.1-0.3-0.2-0.7-0.3-1c0-0.1,0-0.1-0.1-0.2c-0.1,0,0-0.1,0-0.1c0.1-0.2,0.2-0.3,0.2-0.5c0-0.1,0.1-0.1,0.1-0.1c0.1,0,0.2,0,0.3,0
	l0.9-0.2c0.1,0,0.2-0.1,0.2-0.2c0,0,0,0,0,0c0-0.3,0.1-0.6,0.1-0.9C64.8,9.9,64.7,9.8,64.6,9.8z M60.5,13.6
	c-2.5,1.5-5.8,0.6-7.3-1.9c-1.4-2.5-0.6-5.6,1.9-7.1c0,0,0.1,0,0.1-0.1c2.5-1.5,5.8-0.6,7.3,1.9c1.4,2.5,0.6,5.6-1.9,7.1
	C60.6,13.5,60.5,13.6,60.5,13.6z M55.4,19.9c-0.4,0-0.7,0-1.1-0.1c-0.1,0-0.1,0-0.1-0.1c-0.1-0.4-0.2-0.7-0.4-1.1c0-0.1,0-0.1,0-0.2
	c0.3-0.4,0.5-0.7,0.8-1.1c0.1-0.1,0.1-0.2,0-0.3c0,0,0,0,0,0c-0.2-0.3-0.5-0.6-0.7-0.8c-0.1-0.1-0.2-0.1-0.3-0.1
	c-0.4,0.2-0.7,0.3-1.1,0.5c0,0-0.1,0-0.1,0c-0.3-0.3-0.6-0.5-0.9-0.7c0,0-0.1-0.1,0-0.1c0,0,0,0,0,0c0.1-0.4,0.2-0.8,0.3-1.2
	c0.1-0.1,0-0.2-0.1-0.3c0,0,0,0,0,0l-1-0.6c-0.1-0.1-0.2-0.1-0.3,0c-0.2,0.2-0.4,0.4-0.6,0.6c-0.2,0.1-0.3,0.3-0.5,0.5
	c0,0-0.1,0-0.1,0c-0.4-0.1-0.8-0.2-1.2-0.2c0,0-0.1,0-0.1-0.1c-0.1-0.2-0.2-0.4-0.3-0.6c-0.1-0.2-0.3-0.4-0.4-0.7
	c0-0.1-0.1-0.2-0.3-0.1c0,0,0,0,0,0l-1.1,0.2c-0.1,0-0.2,0.1-0.2,0.2c0,0.4,0,0.7-0.1,1.1c0,0.1,0,0.1-0.1,0.1
	c-0.4,0.1-0.8,0.3-1.2,0.4c0,0-0.1,0-0.1,0c-0.3-0.2-0.6-0.4-0.9-0.7c-0.1-0.1-0.1-0.1-0.2-0.1l-0.2,0.1c0,0,0,0.1-0.1,0.1l-0.7,0.5
	c-0.1,0-0.1,0.2-0.1,0.3c0.1,0.3,0.3,0.7,0.4,1c0,0.1,0,0.2,0,0.2c-0.3,0.3-0.6,0.6-0.8,1c0,0.1-0.1,0.1-0.2,0.1
	c-0.4-0.1-0.7-0.2-1.1-0.3c-0.1,0-0.2,0-0.3,0.1c-0.2,0.3-0.4,0.7-0.6,1c-0.1,0.1,0,0.2,0,0.3c0.3,0.3,0.7,0.6,1,0.9
	c0,0,0,0.1,0,0.1c-0.1,0.4-0.2,0.8-0.2,1.2c0,0.1,0,0.1-0.1,0.1c-0.3,0.1-0.6,0.2-1,0.4c-0.1,0-0.2,0.1-0.2,0.2
	c0,0.4,0.1,0.7,0.1,1.1c0,0.1,0.1,0.2,0.2,0.2c0.3,0.1,0.7,0.1,1,0.2c0.1,0,0.1,0,0.1,0.1c0.1,0.4,0.2,0.7,0.4,1.1c0,0,0,0.1,0,0.1
	c-0.3,0.4-0.5,0.7-0.8,1.1C40,25.9,40,26,40,26.1c0,0,0,0,0,0c0.2,0.3,0.5,0.5,0.7,0.8c0.1,0.1,0.2,0.2,0.3,0.1c0,0,0,0,0,0
	c0.3-0.2,0.7-0.3,1-0.5c0.1,0,0.1,0,0.2,0c0.3,0.3,0.7,0.6,1.1,0.9c0,0,0.1,0.1,0.1,0.1c-0.1,0.4-0.1,0.9-0.2,1.3
	c0,0.1,0,0.2,0.1,0.3c0,0,0,0,0,0l1,0.4c0.1,0.1,0.2,0,0.3-0.1c0.3-0.3,0.5-0.7,0.8-1c0,0,0.1-0.1,0.1-0.1c0.3,0.1,0.7,0.1,1,0.2
	c0,0,0.1,0,0.1,0c0.2,0.4,0.3,0.8,0.5,1.2c0,0.1,0.1,0.2,0.3,0.2c0.4,0,0.8-0.1,1.1-0.1c0.1,0,0.2-0.1,0.2-0.2
	c0.1-0.4,0.1-0.8,0.2-1.2c0-0.1,0-0.1,0.1-0.1c0.4-0.1,0.7-0.2,1.1-0.4c0,0,0.1,0,0.1,0c0.3,0.2,0.7,0.4,1,0.7
	c0.1,0.1,0.2,0.1,0.3,0c0,0,0,0,0,0c0.3-0.2,0.6-0.5,0.8-0.7c0.1-0.1,0.1-0.2,0.1-0.2c-0.2-0.3-0.3-0.6-0.5-1c0-0.1,0-0.1,0-0.2
	c0.4-0.4,0.7-0.8,1-1.3c0-0.1,0.1-0.1,0.1-0.1c0,0,0,0,0,0c0.3,0.1,0.5,0.2,0.8,0.3c0.1,0.1,0.2,0,0.3-0.1c0,0,0,0,0,0
	c0.2-0.3,0.5-0.6,0.7-0.9c0.1-0.1,0.1-0.2,0-0.3c-0.3-0.3-0.5-0.7-0.8-1c0-0.1-0.1-0.2-0.2-0.2c-0.1,0-0.1,0-0.1-0.1
	c0-0.2,0.1-0.4,0.1-0.6c0-0.1,0-0.2,0.1-0.2c0.1,0,0.2-0.1,0.3-0.1c0.3-0.2,0.6-0.3,1-0.5c0.1,0,0.2-0.1,0.2-0.2c0,0,0,0,0,0
	c-0.1-0.4-0.2-0.7-0.2-1.1C55.6,20,55.5,19.9,55.4,19.9L55.4,19.9z M53,21.5c-0.3,0.1-0.5,0.3-0.8,0.4c0,0-0.1,0-0.1,0.1
	c0,0,0,0,0,0c0,0.2,0,0.3-0.1,0.5c0.1,0.1,0.2,0.2,0.3,0.3c0.1,0.1,0.2,0.3,0.3,0.4c0.1,0.1,0.1,0.3,0,0.4c0,0,0,0,0,0
	c-0.1,0.1-0.2,0.3-0.3,0.4c-0.1,0.1-0.2,0.2-0.4,0.1c-0.1-0.1-0.3-0.1-0.4-0.2c0,0-0.1,0-0.1,0c0,0,0,0,0,0
	c-0.2,0.3-0.4,0.6-0.7,0.8c-0.1,0-0.1,0.1,0,0.2c0,0,0,0,0,0c0.1,0.2,0.2,0.3,0.2,0.5c0.1,0.1,0,0.3-0.1,0.4
	c-0.1,0.1-0.3,0.2-0.4,0.3c-0.1,0.1-0.3,0.1-0.4,0c-0.2-0.1-0.4-0.3-0.6-0.4c0,0-0.1,0-0.2,0c-0.2,0.1-0.4,0.2-0.7,0.2
	c-0.1,0-0.1,0.1-0.1,0.1c0,0.2-0.1,0.4-0.1,0.6c0,0.2-0.1,0.3-0.3,0.3c0,0,0,0,0,0c-0.2,0-0.3,0-0.5,0.1c-0.2,0.1-0.3,0-0.4-0.2
	c0,0,0,0,0,0c-0.1-0.2-0.2-0.4-0.3-0.7c0,0-0.1-0.1-0.1-0.1c-0.2,0-0.5,0-0.7-0.1c-0.1,0-0.1,0-0.2,0.1c-0.2,0.2-0.3,0.4-0.5,0.6
	c-0.1,0.1-0.3,0.2-0.4,0.1c-0.2-0.1-0.3-0.1-0.5-0.2c-0.1,0-0.2-0.2-0.2-0.3c0-0.2,0.1-0.5,0.1-0.7c0-0.1,0-0.1-0.1-0.1
	c-0.3-0.2-0.5-0.3-0.7-0.6c0-0.1-0.1-0.1-0.2,0c-0.2,0.1-0.4,0.2-0.6,0.3c-0.1,0.1-0.3,0.1-0.4-0.1c0,0,0,0,0,0
	c-0.1-0.1-0.2-0.3-0.3-0.4c-0.1-0.1-0.1-0.3,0-0.5c0.1-0.2,0.3-0.4,0.4-0.7c0,0,0-0.1,0-0.2c-0.1-0.2-0.2-0.4-0.2-0.6
	c0-0.1-0.1-0.1-0.1-0.1c-0.2,0-0.3-0.1-0.5-0.1c-0.2,0-0.3-0.1-0.3-0.3c0,0,0,0,0,0c0-0.2,0-0.3-0.1-0.5c0-0.2,0.1-0.3,0.2-0.4
	c0.2-0.1,0.3-0.1,0.5-0.2c0,0,0.1-0.1,0.1-0.1c0-0.3,0.1-0.5,0.1-0.8c0,0,0-0.1,0-0.1c-0.2-0.2-0.3-0.3-0.5-0.5
	c-0.1-0.1-0.2-0.3-0.1-0.4c0,0,0,0,0-0.1l0.2-0.4c0.1-0.1,0.2-0.2,0.4-0.2c0.2,0,0.4,0.1,0.6,0.1c0.1,0,0.1,0,0.2-0.1
	c0.2-0.2,0.4-0.5,0.6-0.7c0,0,0.1-0.1,0-0.1c-0.1-0.2-0.2-0.4-0.2-0.6c-0.1-0.1,0-0.3,0.1-0.4c0,0,0,0,0,0c0.1-0.1,0.3-0.2,0.4-0.3
	c0.1-0.1,0.3-0.1,0.4,0c0.2,0.1,0.3,0.3,0.5,0.4c0,0,0.1,0.1,0.2,0c0.2-0.1,0.5-0.2,0.8-0.3c0.1,0,0.1-0.1,0.1-0.1
	c0-0.2,0-0.4,0-0.6c0-0.2,0.1-0.3,0.3-0.3c0,0,0,0,0,0c0.2,0,0.3-0.1,0.5-0.1c0.1,0,0.3,0,0.3,0.1l0.1,0.2c0.1,0.2,0.2,0.4,0.3,0.6
	c0,0,0,0.1,0.1,0.1c0.3,0,0.5,0.1,0.8,0.1c0,0,0.1,0,0.1,0c0.2-0.2,0.3-0.4,0.5-0.5c0.1-0.1,0.2-0.2,0.3-0.2c0.1,0,0.1,0,0.2,0
	l0.5,0.3c0.1,0.1,0.2,0.2,0.2,0.4c0,0,0,0,0,0c-0.1,0.2-0.1,0.5-0.2,0.7c0,0.1,0,0.1,0,0.1c0,0,0,0,0,0c0.2,0.1,0.4,0.3,0.5,0.5
	c0,0.1,0.1,0.1,0.2,0c0.2-0.1,0.4-0.2,0.5-0.2c0.1-0.1,0.3-0.1,0.4,0.1c0,0,0,0,0,0c0.1,0.1,0.2,0.2,0.3,0.4c0.1,0.1,0.1,0.3,0,0.4
	c-0.2,0.2-0.3,0.4-0.4,0.7c0,0,0,0.1,0,0.2c0.1,0.2,0.2,0.5,0.3,0.7c0,0.1,0.1,0.1,0.1,0.1c0,0,0,0,0,0c0.2,0,0.4,0,0.6,0
	c0.2,0,0.3,0.1,0.3,0.3c0,0,0,0,0,0c0,0.2,0.1,0.3,0.1,0.5C53.2,21.3,53.1,21.5,53,21.5L53,21.5z M15.6,41.9
	c-0.6-0.7-1.3-1.2-2.1-1.5c-0.9-0.3-1.8-0.4-2.7-0.4c-1.4-0.1-2.9,0.2-4.1,1.1c-0.8,0.7-1.3,1.7-1.3,2.8c0,0.5,0.1,1,0.3,1.5
	c0.2,0.4,0.6,0.8,1,1c0.5,0.3,1.1,0.6,1.7,0.7c0.7,0.2,1.5,0.4,2.4,0.6c1,0.2,1.8,0.4,2.6,0.6c0.7,0.2,1.4,0.5,2,0.9
	c0.5,0.3,1,0.8,1.3,1.3c0.3,0.6,0.5,1.3,0.4,1.9c0,0.7-0.1,1.3-0.4,1.9c-0.3,0.6-0.7,1-1.3,1.4c-0.6,0.4-1.3,0.7-2,0.8
	c-0.8,0.2-1.7,0.3-2.6,0.3c-1.3,0-2.6-0.2-3.8-0.6c-1.2-0.5-2.2-1.1-3.1-2l0.5-0.6c0.8,0.8,1.8,1.5,2.8,1.9c1.2,0.4,2.4,0.7,3.6,0.6
	c1.4,0.1,2.7-0.2,3.9-0.9c0.9-0.6,1.5-1.6,1.4-2.7c0-0.5-0.1-1.1-0.3-1.6c-0.3-0.4-0.6-0.8-1.1-1.1c-0.6-0.3-1.2-0.6-1.8-0.8
	c-0.7-0.2-1.6-0.4-2.6-0.6c-1-0.2-1.8-0.4-2.6-0.6c-0.7-0.2-1.3-0.4-1.9-0.8c-0.5-0.3-0.9-0.7-1.1-1.2c-0.3-0.6-0.4-1.2-0.4-1.8
	c0-0.7,0.1-1.4,0.4-2c0.3-0.6,0.7-1.1,1.3-1.5c0.6-0.4,1.3-0.7,2-0.9c0.8-0.2,1.7-0.3,2.5-0.3c1,0,2,0.1,3,0.5
	c0.9,0.3,1.7,0.9,2.4,1.6L15.6,41.9z M20.3,56.7V39.3h0.9v17.4H20.3z M26.8,40.9v15.8H26V39.3h0.6l13,16.1V39.3h0.9v17.4h-0.8
	L26.8,40.9z M44,47.9c0-1.1,0.2-2.1,0.6-3.1c0.4-1,0.9-2,1.6-2.8c0.7-0.8,1.6-1.5,2.6-2c1.1-0.5,2.3-0.8,3.5-0.8
	c1.4,0,2.8,0.3,4,1.1c1.1,0.7,1.9,1.6,2.5,2.7l-0.7,0.3c-0.3-0.6-0.7-1.1-1.2-1.6c-0.4-0.4-0.9-0.8-1.4-1c-0.5-0.3-1-0.4-1.6-0.6
	C53.4,40,52.8,40,52.3,40c-1.1,0-2.2,0.2-3.1,0.7c-0.9,0.4-1.7,1.1-2.3,1.8c-0.6,0.8-1.1,1.6-1.4,2.5c-0.3,0.9-0.5,1.9-0.5,2.9
	c0,2.1,0.8,4.1,2.2,5.7c0.7,0.7,1.5,1.3,2.4,1.8c0.9,0.4,1.9,0.7,2.9,0.7c1.2,0,2.4-0.3,3.4-0.8c0.6-0.3,1.1-0.7,1.5-1.1
	c0.5-0.5,0.9-1,1.2-1.6l0.8,0.3C59,53.4,58.5,54,58,54.5c-0.5,0.5-1.1,0.9-1.7,1.3c-0.6,0.3-1.3,0.6-2,0.8c-0.7,0.2-1.4,0.3-2.1,0.3
	c-1.2,0-2.3-0.3-3.3-0.8c-1-0.5-1.9-1.2-2.6-2.1c-0.7-0.8-1.3-1.8-1.7-2.9C44.2,50.1,44,49,44,47.9L44,47.9z M74.2,55.9v0.8H62.5
	V39.3H74v0.8H63.4v7.3h9.3v0.8h-9.3v7.7L74.2,55.9L74.2,55.9z M17.8,79v4.3H3.1V79h5.2V68.2c-0.3,0.3-0.6,0.6-1,0.9
	c-0.5,0.3-1,0.6-1.5,0.8c-0.6,0.3-1.1,0.5-1.7,0.6c-0.5,0.2-1,0.2-1.6,0.3v-4.5c0.6,0,1.1-0.2,1.6-0.4c0.6-0.3,1.3-0.6,1.8-1
	c0.5-0.3,1.1-0.7,1.6-1.1c0.3-0.2,0.6-0.5,0.9-0.9h5V79H17.8L17.8,79z M19.8,71.7c0-1.2,0.2-2.4,0.7-3.5c0.5-1.1,1.1-2,2-2.8
	c0.9-0.8,1.9-1.4,3-1.9c1.2-0.5,2.4-0.7,3.7-0.7c1.4,0,2.7,0.2,3.9,0.8c1.2,0.5,2.2,1.3,3,2.3c0.9,1.1,1.5,2.3,1.9,3.7
	c0.5,1.6,0.7,3.2,0.7,4.9c0,2.1-0.2,4.1-0.7,6.1c-0.4,1.6-1.1,3.1-2,4.5c-0.8,1.2-1.9,2.1-3.1,2.7c-1.3,0.6-2.7,0.9-4.1,0.9
	c-1.6,0-3.1-0.3-4.5-1c-1.4-0.7-2.6-1.7-3.5-3l2.8-3c0.6,0.9,1.3,1.6,2.2,2.1c0.9,0.5,2,0.8,3,0.8c1.5,0.1,3-0.7,3.9-1.9
	c1.1-1.6,1.6-3.5,1.5-5.4c-0.5,0.9-1.2,1.6-2.1,2c-1,0.5-2.1,0.8-3.3,0.8c-1.2,0-2.4-0.2-3.6-0.6c-1.1-0.4-2-1-2.8-1.8
	c-0.8-0.8-1.4-1.7-1.9-2.7C20.1,74,19.8,72.9,19.8,71.7L19.8,71.7z M29.2,67c-0.6,0-1.3,0.1-1.8,0.4c-0.6,0.2-1.1,0.6-1.5,1
	c-0.4,0.4-0.8,1-1,1.5c-0.3,0.6-0.4,1.2-0.4,1.8c0,0.6,0.1,1.2,0.4,1.8c0.2,0.6,0.6,1.1,1,1.5c0.4,0.4,0.9,0.8,1.5,1
	c1.2,0.5,2.5,0.5,3.7,0c0.6-0.2,1.1-0.6,1.5-1c0.4-0.4,0.8-0.9,1-1.5c0.3-0.6,0.4-1.2,0.4-1.8c0-0.6-0.1-1.3-0.4-1.8
	c-0.2-0.6-0.6-1.1-1-1.5c-0.4-0.4-0.9-0.8-1.5-1C30.5,67.1,29.9,67,29.2,67L29.2,67z M51.9,66.9H40.2v-4.4h19.3L46.8,87.8h-5.5
	L51.9,66.9z M68.6,87.8v-5.3H58v-4.2l12.1-15.3h3.3v15.3h3.2v4.3h-3.2v5.3L68.6,87.8L68.6,87.8z M62.9,78.2h6.3v-8.1L62.9,78.2z"/>
</svg>
